<svg xmlns="http://www.w3.org/2000/svg" viewBox="550 0 95 120" width="64" height="64">
  <defs><style>.shield{fill:#fff;stroke:#0b3d91;stroke-width:4.5;}.heart{fill:#0b3d91;}</style></defs>
  <!-- Shield with heart - logo mark only, no text -->
  <path class="shield" d="M591.23,13.62a4.19,4.19,0,0,0-2,0L555,22a4.19,4.19,0,0,0-3.2,4.08V64.62c1.74,36.76,31.66,44.6,37.64,45.8a4.29,4.29,0,0,0,1.65,0c6-1.2,35.9-9,37.64-45.8V26.09A4.2,4.2,0,0,0,625.5,22Z"/>
  <path class="heart" d="M592,91.42a2.37,2.37,0,0,1-2.78,0,147.38,147.38,0,0,1-15-12.62c-6.12-5.92-12-12.92-15.1-20.1a17.26,17.26,0,0,1-1.36-9.83h0a17.33,17.33,0,0,1,32.88-4.54,17.34,17.34,0,0,1,22.95-8.57,17.45,17.45,0,0,1,8.57,23c-3.25,7.53-9.56,14.86-16,21A150.05,150.05,0,0,1,592,91.42Z"/>
</svg>
