<svg xmlns="http://www.w3.org/2000/svg" viewBox="0 0 641.47 293.34"><defs><style>.cls-1{fill:#0b3d91;}.cls-2{fill:#fff;}</style></defs><g id="Layer_2" data-name="Layer 2"><g id="Layer_1-2" data-name="Layer 1"><path class="cls-1" d="M641.47,65.87c-1,19.82-7.63,33.69-16,43.37a112.4,112.4,0,0,1,12.12,51.68A115,115,0,0,1,522.59,275h-407a178.73,178.73,0,0,1-44-7c-32.36,12.79-55.28,22.06-60.25,24.7a7.63,7.63,0,0,1-3.17.64,8.23,8.23,0,0,1-7-12.44Q14.87,258,28.53,235.14A115,115,0,0,1,115.59,45H521.23a115.73,115.73,0,0,1,17.26,1.29V16.67a5.38,5.38,0,0,1,4.1-5.23L588.7.15a5.54,5.54,0,0,1,2.56,0l46.1,11.29a5.39,5.39,0,0,1,4.11,5.23Z"/><path class="cls-2" d="M122.15,136.79a21.38,21.38,0,0,0-9.22-7.28,33.48,33.48,0,0,0-13.08-2.77q-9.28,0-15.08,3.67t-5.8,10q0,5.94,5.6,8.64t16.31,4.25A118.22,118.22,0,0,1,114.55,156a51.79,51.79,0,0,1,11.21,4.58,20.78,20.78,0,0,1,8.44,8.25,25.14,25.14,0,0,1,2.9,12.44q0,9.66-5.6,16.11a30.33,30.33,0,0,1-13.67,9.09,58,58,0,0,1-18.11,2.64q-27.72,0-38.8-20.5l10.83-7.21q8.76,14.82,28.1,14.82a42.54,42.54,0,0,0,10.83-1.29,18.35,18.35,0,0,0,8.44-4.83,12,12,0,0,0,3.55-8.83,10.76,10.76,0,0,0-6.13-10.12q-6.12-3.28-17-4.71A103.84,103.84,0,0,1,89,164.64a66.7,66.7,0,0,1-9.35-3A26.26,26.26,0,0,1,71.68,157a21.06,21.06,0,0,1-5-7,23.13,23.13,0,0,1-2-9.86,22.4,22.4,0,0,1,11.34-20,43.14,43.14,0,0,1,11.09-4.45,50.74,50.74,0,0,1,12.37-1.48q24.11,0,33.65,15.21Z"/><path class="cls-2" d="M202.07,143.5H215v63.55H202.33l-.65-10.31a19.92,19.92,0,0,1-9.21,8.89,28.39,28.39,0,0,1-12.7,3.09q-14.31.14-23.46-8.76t-9.15-24.75q0-15.47,9.34-24.3T180,142.08a27.21,27.21,0,0,1,12.76,3.09,21.05,21.05,0,0,1,8.89,8.38Zm-35.71,16.43q-5.93,5.74-5.93,15.28t5.93,15.34a20.19,20.19,0,0,0,14.7,5.8A21.54,21.54,0,0,0,191.18,194a16.52,16.52,0,0,0,6.7-6.06,29.34,29.34,0,0,0,3.35-8.19,18.56,18.56,0,0,0,0-8.95,29.23,29.23,0,0,0-3.35-8.25,16.38,16.38,0,0,0-6.7-6.06,21.54,21.54,0,0,0-10.12-2.32A20.33,20.33,0,0,0,166.36,159.93Z"/><path class="cls-2" d="M239.71,207.05V156H227.59V144.27h12.12v-4.64q0-11.48,6.38-17.79t16.56-6.32a27.55,27.55,0,0,1,15.6,5l-5.15,9.93q-5.16-3.36-9.67-3.35a9.52,9.52,0,0,0-7.54,3.15q-2.77,3.16-2.78,9.35v4.64h19.21V156H253.11v51.05Z"/><path class="cls-2" d="M292.17,180.24a16.79,16.79,0,0,0,6.51,11.6q5.61,4.38,14.25,4.38a30.52,30.52,0,0,0,10.37-1.87,19.78,19.78,0,0,0,8.06-5l8.64,8.38a31.78,31.78,0,0,1-12.18,8,42.1,42.1,0,0,1-15.15,2.83q-15.6,0-24.94-9.15T278.38,175q0-14.56,9.28-23.85t24.11-9.28q16,0,24.88,9.8t7.09,28.62ZM331,169q-.51-7.35-5.6-11.34t-13.22-4a20.77,20.77,0,0,0-12.82,4,18.22,18.22,0,0,0-6.9,11.34Z"/><path class="cls-2" d="M366.55,129.83H336.9v-13h73.74v13H381.12v77.22H366.55Z"/><path class="cls-2" d="M458.46,143.5h12.89v63.55H458.72l-.65-10.31a19.94,19.94,0,0,1-9.22,8.89,28.35,28.35,0,0,1-12.69,3.09q-14.31.14-23.46-8.76t-9.16-24.75q0-15.47,9.35-24.3t23.53-8.83a27.24,27.24,0,0,1,12.76,3.09,21.11,21.11,0,0,1,8.89,8.38Zm-35.71,16.43q-5.92,5.74-5.93,15.28t5.93,15.34a20.17,20.17,0,0,0,14.7,5.8A21.54,21.54,0,0,0,447.57,194a16.58,16.58,0,0,0,6.7-6.06,29.34,29.34,0,0,0,3.35-8.19,18.56,18.56,0,0,0,0-8.95,29.23,29.23,0,0,0-3.35-8.25,16.44,16.44,0,0,0-6.7-6.06,21.54,21.54,0,0,0-10.12-2.32A20.32,20.32,0,0,0,422.75,159.93Z"/><path class="cls-2" d="M503.19,116.94v90.11H489.91V116.94Z"/><path class="cls-2" d="M535.15,116.94v52.6l23.59-26h16.12v.77L547.4,173.4l31.19,32.75v.9H562.35l-27.2-29.39v29.39h-13.4V116.94Z"/><path class="cls-2" d="M591.23,13.62a4.19,4.19,0,0,0-2,0L555,22a4.19,4.19,0,0,0-3.2,4.08V64.62c1.74,36.76,31.66,44.6,37.64,45.8a4.29,4.29,0,0,0,1.65,0c6-1.2,35.9-9,37.64-45.8V26.09A4.2,4.2,0,0,0,625.5,22Z"/><path class="cls-1" d="M592,91.42a2.37,2.37,0,0,1-2.78,0,147.38,147.38,0,0,1-15-12.62c-6.12-5.92-12-12.92-15.1-20.1a17.26,17.26,0,0,1-1.36-9.83h0a17.33,17.33,0,0,1,32.88-4.54,17.34,17.34,0,0,1,22.95-8.57,17.45,17.45,0,0,1,8.57,23c-3.25,7.53-9.56,14.86-16,21A150.05,150.05,0,0,1,592,91.42Z"/></g></g></svg>